<?xml version="1.0" standalone="no"?>
<!DOCTYPE svg PUBLIC "-//W3C//DTD SVG 20010904//EN"
 "http://www.w3.org/TR/2001/REC-SVG-20010904/DTD/svg10.dtd">
<svg version="1.0" xmlns="http://www.w3.org/2000/svg"
 width="256.000000pt" height="256.000000pt" viewBox="0 0 256.000000 256.000000"
 preserveAspectRatio="xMidYMid meet">

<g transform="translate(0.000000,256.000000) scale(0.100000,-0.100000)"
fill="#000000" stroke="none">
<path d="M601 1823 c-7 -8 -15 -32 -18 -54 -7 -51 -23 -61 -23 -15 0 26 -4 34
-14 30 -20 -8 -26 -28 -17 -61 5 -20 20 -34 54 -50 45 -22 47 -25 47 -65 0
-54 9 -68 46 -71 26 -2 30 2 46 53 l18 55 -22 17 c-30 23 -56 25 -38 3 18 -22
4 -32 -17 -13 -10 9 -23 14 -29 11 -12 -4 -54 42 -54 58 0 5 11 11 25 15 25 6
35 39 14 46 -7 2 -5 9 5 17 14 11 20 9 46 -19 27 -29 42 -69 21 -56 -5 4 -7
-3 -4 -14 7 -25 18 -26 20 -2 1 9 4 26 8 37 5 16 -2 26 -33 45 -22 14 -39 29
-37 35 1 5 0 6 -3 2 -2 -4 -9 -4 -15 2 -8 6 -17 4 -26 -6z"/>
<path d="M651 1743 c-1 -6 -4 -18 -7 -27 -4 -11 -1 -16 10 -16 18 0 19 6 6 35
-5 11 -9 15 -9 8z"/>
<path d="M591 1577 c-6 -16 -11 -34 -11 -40 0 -7 -7 -3 -15 7 -13 17 -15 17
-21 3 -15 -40 30 -63 67 -34 13 10 13 18 3 52 l-12 40 -11 -28z"/>
<path d="M650 1502 c0 -6 9 -12 20 -15 11 -3 20 -3 20 -1 0 2 -9 8 -20 14 -11
6 -20 7 -20 2z"/>
<path d="M618 1471 c5 -13 3 -14 -10 -3 -12 10 -11 3 4 -28 16 -31 23 -38 33
-30 9 8 15 8 20 0 11 -17 25 -1 25 29 0 23 -6 28 -39 37 -34 9 -38 9 -33 -5z"/>
<path d="M546 1463 c-3 -3 -6 -17 -6 -29 0 -13 -5 -26 -10 -29 -11 -7 -6 -34
12 -72 12 -25 31 -32 22 -9 -3 7 2 16 10 19 15 6 22 -16 17 -47 -2 -12 31 -35
52 -36 24 0 21 16 -5 25 -13 4 -25 7 -28 7 -3 0 -6 11 -6 24 -1 13 2 22 6 19
5 -3 11 1 14 7 3 7 3 3 0 -9 -6 -27 4 -30 22 -5 20 25 17 33 -9 28 -31 -5 -52
8 -43 29 9 24 -4 64 -24 75 -9 5 -20 6 -24 3z m31 -45 c-3 -8 -6 -5 -6 6 -1
11 2 17 5 13 3 -3 4 -12 1 -19z"/>
<path d="M605 1380 c-3 -5 -1 -10 4 -10 6 0 11 5 11 10 0 6 -2 10 -4 10 -3 0
-8 -4 -11 -10z"/>
<path d="M510 1330 c0 -5 5 -10 11 -10 5 0 7 5 4 10 -3 6 -8 10 -11 10 -2 0
-4 -4 -4 -10z"/>
<path d="M535 1290 c-3 -6 1 -7 9 -4 18 7 21 14 7 14 -6 0 -13 -4 -16 -10z"/>
<path d="M914 1234 c4 -16 8 -37 9 -46 1 -10 5 -14 10 -9 11 11 0 68 -15 77
-7 5 -9 -2 -4 -22z"/>
<path d="M651 1218 c11 -20 29 -15 29 7 0 8 -9 13 -19 12 -16 -1 -18 -5 -10
-19z"/>
<path d="M485 1179 c-5 -19 -10 -28 -12 -21 -6 15 -49 16 -59 1 -3 -6 -15 -9
-25 -6 -11 3 -19 2 -19 -3 0 -4 -12 -5 -26 -2 -18 3 -25 1 -20 -6 3 -6 -3 -12
-16 -14 -14 -2 15 -15 75 -33 53 -16 97 -33 97 -37 0 -5 -3 -8 -7 -8 -5 0 -19
-10 -33 -21 l-25 -20 25 7 c14 4 32 15 40 24 9 11 22 15 34 11 16 -6 13 -10
-17 -31 -20 -13 -33 -28 -30 -33 3 -5 9 -4 12 2 4 6 17 13 29 16 34 6 39 12
46 49 4 19 14 37 23 41 14 5 15 8 4 15 -9 5 -11 15 -6 26 4 11 9 29 11 41 2
20 0 22 -17 13 -14 -8 -18 -17 -13 -35 11 -43 -25 -30 -45 16 l-19 41 -7 -33z"/>
<path d="M1001 1126 c-8 -10 -9 -16 -1 -21 7 -4 3 -14 -11 -26 -28 -24 -28
-24 -40 7 -12 33 -22 26 -13 -10 4 -15 13 -26 24 -26 9 0 25 -9 35 -20 22 -24
38 -25 56 -3 12 15 12 16 -3 10 -10 -3 -18 -2 -18 4 0 6 9 13 20 16 20 5 28
23 11 23 -5 0 -18 14 -28 31 -17 25 -22 28 -32 15z"/>
<path d="M696 1095 c-14 -13 -26 -28 -26 -34 0 -22 13 -41 30 -41 13 0 17 8
16 30 -1 35 -4 36 -23 13 -13 -16 -13 -16 -3 4 8 18 16 21 40 16 34 -6 41 10
11 26 -15 8 -24 5 -45 -14z"/>
<path d="M410 1060 c-8 -5 -10 -10 -5 -10 6 0 17 5 25 10 8 5 11 10 5 10 -5 0
-17 -5 -25 -10z"/>
<path d="M522 990 c-20 -11 -28 -20 -20 -22 19 -7 58 13 58 29 0 7 -1 12 -2
12 -2 -1 -18 -9 -36 -19z"/>
<path d="M627 893 c-23 -4 -26 -7 -16 -19 9 -11 8 -14 -4 -14 -8 0 -20 -13
-27 -30 -7 -16 -19 -30 -27 -30 -8 0 -11 -5 -8 -10 3 -6 -4 -25 -16 -43 -22
-30 -22 -31 -2 -14 12 10 32 20 45 22 48 8 98 24 115 37 8 6 7 17 -4 40 -13
24 -13 35 -4 49 12 20 9 21 -52 12z"/>
<path d="M1205 773 c-11 -3 -30 -14 -42 -26 -28 -25 -31 -52 -5 -42 40 17 54
17 72 0 11 -10 20 -24 20 -31 0 -8 12 -11 38 -7 28 4 42 0 60 -17 12 -11 22
-27 22 -35 0 -27 17 -16 24 15 11 57 -15 93 -96 129 -47 21 -57 23 -93 14z"/>
<path d="M1215 640 c-3 -5 1 -10 9 -10 9 0 16 5 16 10 0 6 -4 10 -9 10 -6 0
-13 -4 -16 -10z"/>
<path d="M1260 621 c0 -12 5 -21 10 -21 6 0 10 6 10 14 0 8 -4 18 -10 21 -5 3
-10 -3 -10 -14z"/>
<path d="M1186 601 c-3 -5 1 -15 10 -22 14 -12 14 -14 1 -24 -14 -10 -13 -13
3 -23 15 -9 19 -7 24 13 4 17 11 22 26 18 27 -7 27 22 1 37 -24 12 -58 13 -65
1z"/>
<path d="M895 530 c4 -6 11 -8 16 -5 14 9 11 15 -7 15 -8 0 -12 -5 -9 -10z"/>
</g>
</svg>
